<svg width="64" height="64" viewBox="0 0 64 64" fill="none" xmlns="http://www.w3.org/2000/svg">
<path fill-rule="evenodd" clip-rule="evenodd" d="M32.6266 1C31.4505 0.999966 30.5153 1.2869 29.7855 1.75844C29.0595 2.22754 28.5831 2.84925 28.273 3.45043C28.0661 3.85157 27.9294 4.2508 27.8391 4.60468C27.6846 4.44884 27.5128 4.30092 27.3217 4.16508C26.6425 3.68232 25.7678 3.38683 24.6705 3.38683C23.4944 3.3868 22.5592 3.67373 21.8294 4.14528C21.1034 4.61437 20.627 5.23608 20.3169 5.83727C19.7086 7.01645 19.7074 8.17913 19.7074 8.2217V24.4812C19.1343 24.2216 18.6783 24.0209 18.3873 23.8942C18.2499 23.8344 18.1379 23.7821 18.0168 23.7255C17.92 23.6802 17.8173 23.6321 17.6913 23.5755C17.1175 23.3176 15.9118 22.8493 14.5921 22.8174C13.2378 22.7846 11.692 23.2194 10.677 24.8447C9.72162 26.3746 9.90378 27.858 10.4479 29.0257C10.9752 30.1571 11.848 31.021 12.3714 31.4753C12.7292 31.786 13.1244 32.0132 13.4628 32.2005C14.8263 32.9552 18.5241 35.1786 20.6543 38.07C21.8938 39.7525 22.8572 42.3239 23.516 44.5452C23.8415 45.6427 24.0859 46.6308 24.2488 47.3442C24.3012 47.5737 24.3451 47.7746 24.3805 47.9411H22.0942C21.6548 47.9411 21.2986 48.2973 21.2986 48.7367V61.4665C21.2986 61.9059 21.6548 62.2621 22.0942 62.2621H53.1231C53.5625 62.2621 53.9187 61.9059 53.9187 61.4665V48.7367C53.9187 48.2973 53.5625 47.9411 53.1231 47.9411H50.7383L51.754 46.3429C52.6457 44.9397 53.1193 43.3115 53.1193 41.6489V11.4042C53.1193 11.3671 53.1189 10.2163 52.5704 9.0467C52.2913 8.4516 51.8579 7.82492 51.1863 7.34753C50.507 6.86477 49.6323 6.56928 48.5351 6.56928C47.359 6.56925 46.4237 6.85618 45.6939 7.32772C45.5012 7.45225 45.3261 7.58753 45.167 7.73033V7.42609C45.167 7.38908 45.1666 6.23819 44.6181 5.06864C44.339 4.47355 43.9056 3.84686 43.2339 3.36947C42.5547 2.88671 41.68 2.59122 40.5827 2.59122C39.4067 2.59119 38.4714 2.87812 37.7416 3.34966C37.4111 3.56319 37.1324 3.80834 36.8975 4.06878C36.8331 3.87582 36.7555 3.67689 36.662 3.47742C36.3829 2.88232 35.9495 2.25564 35.2778 1.77825C34.5986 1.29549 33.7239 1 32.6266 1ZM48.8538 47.9411C48.8594 47.9314 48.8653 47.9217 48.8713 47.9122L50.411 45.4894C51.1406 44.3413 51.528 43.0092 51.528 41.6489L51.528 11.4053L51.528 11.4043C51.5274 11.3714 51.5124 10.5383 51.1297 9.72233C50.9353 9.30761 50.6583 8.92449 50.2644 8.64452C49.8781 8.36992 49.3321 8.1605 48.535 8.1605C47.6274 8.16048 46.9998 8.37842 46.5575 8.66422C46.1114 8.95247 45.8064 9.34058 45.5956 9.74922C45.2524 10.4144 45.1816 11.09 45.167 11.3217V19.3717H45.1632V20.4925C45.1632 20.9319 44.8069 21.2881 44.3675 21.2881C43.9281 21.2881 43.5719 20.9319 43.5719 20.4925V11.4042C43.5719 11.3964 43.572 11.3513 43.5757 11.2756V7.42723C43.5757 7.42723 43.5679 6.5768 43.1774 5.74428C42.9829 5.32956 42.706 4.94643 42.3121 4.66646C41.9258 4.39187 41.3798 4.18245 40.5827 4.18245C39.6751 4.18242 39.0475 4.40036 38.6052 4.68617C38.1591 4.97442 37.8541 5.36253 37.6432 5.77117C37.2201 6.59152 37.2109 7.42761 37.2109 7.42761L37.2108 17.7805L37.2108 18.9013C37.2108 19.3407 36.8546 19.6969 36.4152 19.6969C35.9758 19.6969 35.6196 19.3407 35.6196 18.9013L35.6196 17.7805L35.6196 7.42609L35.6196 5.83601C35.6196 5.83601 35.6118 4.98558 35.2213 4.15305C35.0268 3.73833 34.7499 3.35521 34.356 3.07524C33.9696 2.80064 33.4237 2.59122 32.6266 2.59122C31.7189 2.5912 31.0914 2.80914 30.6491 3.09494C30.203 3.38319 29.8979 3.7713 29.6871 4.17994C29.2639 5.00029 29.2547 5.83639 29.2547 5.83639L29.2547 5.83487V8.2217V12.2112V18.9013C29.2547 19.3407 28.8985 19.6969 28.4591 19.6969C28.0197 19.6969 27.6635 19.3407 27.6635 18.9013V12.2112L27.6635 8.22285C27.6635 8.22285 27.6556 7.37241 27.2652 6.53989C27.0707 6.12517 26.7938 5.74204 26.3999 5.46207C26.0135 5.18748 25.4675 4.97806 24.6705 4.97806C23.7628 4.97803 23.1353 5.19597 22.693 5.48178C22.2468 5.77003 21.9418 6.15814 21.731 6.56678C21.3078 7.38713 21.2986 8.22323 21.2986 8.22323L21.2986 8.2217V25.2167C22.6393 25.8489 24.2441 26.6381 25.8176 27.4907C27.3777 28.336 28.9273 29.2543 30.1635 30.1532C30.7814 30.6024 31.3366 31.0579 31.7799 31.5079C32.2137 31.9483 32.5891 32.4316 32.7809 32.9429C33.4188 34.644 33.6247 36.4282 33.6761 37.7665C33.702 38.4398 33.689 39.0102 33.6694 39.4143C33.6596 39.6166 33.6481 39.7778 33.6389 39.8901C33.6343 39.9462 33.6302 39.9902 33.6273 40.021L33.6225 40.0676L33.6221 40.0709L33.622 40.0721L33.6219 40.0729C33.5734 40.5096 33.18 40.8243 32.7433 40.7757C32.3068 40.7272 31.9922 40.3341 32.0404 39.8977L32.041 39.892L32.0435 39.867C32.0457 39.8438 32.0491 39.8077 32.053 39.7597C32.0609 39.6638 32.0712 39.5204 32.0801 39.3373C32.0978 38.9707 32.1098 38.4471 32.0861 37.8276C32.0382 36.5801 31.8465 34.9829 31.291 33.5016C31.2136 33.2953 31.0166 33.0004 30.6463 32.6247C30.2856 32.2585 29.8052 31.86 29.2278 31.4402C28.0734 30.6009 26.5934 29.7208 25.0596 28.8898C21.9958 27.2298 18.7979 25.8084 17.7522 25.3533C17.6136 25.2929 17.4527 25.2181 17.3048 25.1493L17.3038 25.1489C17.2065 25.1036 17.1149 25.061 17.0389 25.0268C16.5368 24.8011 15.5597 24.4325 14.5537 24.4082C13.5822 24.3847 12.6595 24.6742 12.0267 25.6876C11.4197 26.6596 11.5182 27.5551 11.8902 28.3535C12.2792 29.1882 12.9581 29.8775 13.4145 30.2737C13.6354 30.4655 13.9013 30.6245 14.2334 30.8084C15.614 31.5725 19.5841 33.9347 21.9354 37.1262C23.3489 39.0449 24.3746 41.8439 25.0415 44.0927C25.3789 45.2302 25.6316 46.2521 25.8001 46.99C25.8844 47.3592 25.9477 47.658 25.9902 47.8655C25.9957 47.8922 26.0008 47.9174 26.0056 47.9411H48.8538ZM22.8898 60.6709V49.5323H52.3275V60.6709H22.8898Z" fill="white"/>
</svg>
