<svg width="64" height="64" viewBox="0 0 64 64" fill="none" xmlns="http://www.w3.org/2000/svg">
<path fill-rule="evenodd" clip-rule="evenodd" d="M36.5689 11.5912C35.6076 11.5912 34.9915 11.8339 34.5797 12.1173C34.1554 12.4092 33.8481 12.8139 33.6251 13.2743C33.3996 13.7399 33.2788 14.2254 33.217 14.6085C33.1866 14.7962 33.1721 14.9492 33.1651 15.0494C33.1617 15.0992 33.1602 15.1351 33.1596 15.1547L33.1592 15.1697V19.9451H36.3377C36.3377 19.9451 38.1267 19.9451 39.5202 20.884V15.7325C39.5202 15.7325 39.5202 15.6908 39.5241 15.615V15.1681L39.5236 15.15C39.523 15.1287 39.5216 15.0911 39.5183 15.0394C39.5118 14.9356 39.4981 14.7783 39.4699 14.586C39.4122 14.1932 39.2999 13.6968 39.0907 13.222C38.8821 12.7483 38.6022 12.3517 38.237 12.0753C37.8922 11.8143 37.3822 11.5912 36.5689 11.5912ZM41.1153 23.6018C41.1296 23.7518 41.137 23.908 41.137 24.0705C41.137 24.1905 41.1337 24.307 41.1271 24.4202C41.1336 24.471 41.1426 24.5308 41.1551 24.5976C41.204 24.8582 41.2992 25.1864 41.4752 25.499C41.7684 26.0201 42.3819 26.7078 44.0665 26.7078C46.0511 26.7078 46.7724 25.954 47.0894 25.4419C47.2791 25.1354 47.3797 24.8177 47.431 24.5694C47.456 24.4479 47.4676 24.3514 47.4727 24.2932C47.4749 24.2684 47.4759 24.2512 47.4763 24.2429V15.7399L47.4759 15.7259C47.4753 15.707 47.474 15.6725 47.4708 15.6248C47.4645 15.5288 47.4512 15.3822 47.4237 15.2025C47.3673 14.8352 47.2575 14.3719 47.0538 13.9296C46.8516 13.4903 46.5789 13.1183 46.2164 12.8559C45.8706 12.6056 45.351 12.3868 44.5212 12.3868C43.5452 12.3868 42.9192 12.6234 42.5047 12.8961C42.0813 13.1748 41.781 13.5562 41.5648 13.983C41.3453 14.4164 41.2276 14.8688 41.1673 15.226C41.1378 15.4008 41.1237 15.543 41.117 15.6352L41.1153 15.6605V23.6018ZM40.3476 26.6812C39.2837 28.042 37.4356 28.2011 36.6773 28.2056C36.6041 28.206 36.5312 28.2051 36.4584 28.2042C36.3048 28.2023 36.1517 28.2004 35.9978 28.211C35.3872 28.2533 34.0174 28.4135 32.411 29.021C30.4264 29.7716 27.922 31.4553 26.2771 33.9862C25.0578 35.8622 24.8625 38.5433 24.8803 40.2332L44.0768 40.2332C46.1838 38.9491 47.4763 36.6568 47.4763 34.1795V27.3371C46.7367 27.8924 45.6534 28.2991 44.0665 28.2991C42.0966 28.2991 40.9802 27.5407 40.3476 26.6812ZM24.9682 41.8245H23.3682H20.6051L18.0387 41.8245V52.963H47.4763V41.8245L24.9682 41.8245ZM18.6634 40.2332H17.243C16.8036 40.2332 16.4474 40.5894 16.4474 41.0288V53.7586C16.4474 54.198 16.8036 54.5542 17.243 54.5542H48.2719C48.7113 54.5542 49.0675 54.198 49.0675 53.7586V41.0288C49.0675 40.5894 48.7113 40.2332 48.2719 40.2332H46.6087C48.1637 38.6347 49.0675 36.4718 49.0675 34.1795V24.2623L49.0675 24.2598V15.7325L49.0675 15.7292V15.5693H49.0616C49.0135 14.7148 48.5719 10.7956 44.5212 10.7956C42.4769 10.7956 41.2683 11.6205 40.5537 12.5959C39.9876 11.3005 38.8511 10 36.5689 10C34.3178 9.99993 33.08 11.0457 32.3994 12.1958C31.7806 11.0457 30.6553 10 28.6089 10C26.3601 9.99993 25.1225 11.0436 24.4414 12.1923C23.8223 11.0436 22.6972 10 20.6528 10C15.6518 9.99985 15.6518 15.1613 15.6518 15.1613V23.0855C14.5916 24.4698 14 26.1785 14 27.9585V30.4606C14 34.2641 15.6714 37.8518 18.6474 40.2205C18.6527 40.2247 18.658 40.229 18.6634 40.2332ZM21.1977 40.2332H23.289C23.2852 39.838 23.2921 39.393 23.3187 38.9171C23.4122 37.2415 23.7588 34.9409 24.9429 33.1191C26.7982 30.2645 29.5944 28.3851 31.8481 27.5327C33.6407 26.8547 35.173 26.6731 35.888 26.6236C36.1134 26.608 36.4009 26.6115 36.5642 26.6135C36.6098 26.6141 36.6458 26.6145 36.6679 26.6144C37.1171 26.6118 37.9046 26.5348 38.5292 26.1785C39.023 25.8968 39.5458 25.3853 39.5458 24.0705C39.5458 23.372 39.3512 22.9462 39.1298 22.6607C38.891 22.3528 38.5411 22.1084 38.1091 21.9227C37.2696 21.5619 36.3954 21.5381 36.3375 21.5365C36.3359 21.5364 36.3346 21.5364 36.3346 21.5364C36.3346 21.5364 36.3349 21.5365 36.3375 21.5365L22.0133 21.5364C20.5713 21.5364 19.1713 22.0217 18.0387 22.9141C16.4932 24.1319 15.5912 25.9909 15.5912 27.9585V30.4606C15.5912 33.7963 17.0547 36.9191 19.6383 38.9755C20.2291 39.4457 20.789 39.8929 21.1977 40.2332ZM17.243 21.5197C18.6215 20.4984 20.2935 19.9451 22.0133 19.9451H23.6079V15.1681L23.6075 15.15C23.6069 15.1287 23.6055 15.0911 23.6022 15.0394C23.5957 14.9356 23.582 14.7783 23.5538 14.586C23.4961 14.1932 23.3837 13.6968 23.1746 13.222C22.966 12.7483 22.6861 12.3517 22.3209 12.0753C21.9761 11.8143 21.466 11.5912 20.6528 11.5912C19.6915 11.5912 19.0754 11.8339 18.6636 12.1173C18.2392 12.4092 17.932 12.8139 17.709 13.2743C17.4834 13.7399 17.3627 14.2254 17.3008 14.6085C17.2705 14.7962 17.2559 14.9492 17.249 15.0494C17.2456 15.0992 17.2441 15.1351 17.2434 15.1547L17.243 15.1697V21.5197ZM25.1992 19.9451H31.5641V15.1681L31.5636 15.15C31.563 15.1287 31.5616 15.0911 31.5583 15.0394C31.5518 14.9356 31.5381 14.7783 31.5099 14.586C31.4522 14.1932 31.3399 13.6968 31.1307 13.222C30.9221 12.7483 30.6422 12.3517 30.277 12.0753C29.9322 11.8143 29.4222 11.5912 28.6089 11.5912C27.6476 11.5912 27.0315 11.8339 26.6197 12.1173C26.1953 12.4092 25.8881 12.8139 25.6651 13.2743C25.4395 13.7399 25.3188 14.2254 25.2569 14.6085C25.2266 14.7962 25.2121 14.9492 25.2051 15.0494C25.2017 15.0992 25.2002 15.1351 25.1995 15.1547L25.1992 15.1697V19.9451Z" fill="white"/>
</svg>
