<svg width="64" height="64" viewBox="0 0 64 64" fill="none" xmlns="http://www.w3.org/2000/svg">
<path fill-rule="evenodd" clip-rule="evenodd" d="M34.3201 3.50754C33.6651 4.20217 33.4064 5.03373 33.4064 5.03373L28.6332 20.9457C28.5384 21.2614 28.2588 21.4861 27.9301 21.5105C27.6013 21.5349 27.2915 21.3541 27.1512 21.0558L20.7945 7.54529L20.7866 7.52852C20.7348 7.42416 20.2687 6.5213 19.4585 5.85453C19.0615 5.52781 18.6091 5.28054 18.1058 5.19057C17.614 5.10267 17.0161 5.15406 16.2939 5.51508C15.5743 5.87482 15.1617 6.32708 14.9214 6.78593C14.6759 7.25464 14.5859 7.77809 14.5915 8.30232C14.6029 9.37019 15.0089 10.3059 15.0621 10.4228C15.0639 10.4269 15.0656 10.4305 15.0724 10.4446L19.8419 20.3213C20.415 21.5081 20.7127 22.8091 20.7127 24.127L20.7166 28.4344C21.7963 27.9133 22.986 27.6378 24.1997 27.6378H38.524C38.524 27.6378 40.292 27.6378 41.6818 28.5602L41.7065 25.6713V25.2661C41.7065 25.2661 41.7065 25.2207 41.7106 25.1384L41.7122 24.9285C41.7122 24.9285 41.7044 24.0781 41.3139 23.2455C41.1195 22.8308 40.8425 22.4477 40.4486 22.1677C40.0623 21.8931 39.6544 21.664 38.8574 21.664C38.0415 21.664 37.776 21.8401 37.4094 22.0833C37.3682 22.1106 37.3256 22.1389 37.2809 22.1677C36.8348 22.456 36.5298 22.8441 36.319 23.2527C36.2041 23.4755 36.1041 23.6671 36.0193 23.828L35.6559 25.0483C35.5796 25.401 35.2824 25.664 34.9049 25.664L34.8988 25.6639C34.8174 25.6659 34.7344 25.6553 34.6522 25.6308C34.2311 25.5054 33.9914 25.0623 34.1168 24.6412L34.1831 24.4188C34.2261 24.2543 34.2842 24.0522 34.3598 23.8254L36.6557 16.1176L36.657 16.1132L39.3871 6.75008C39.4034 6.69428 39.4173 6.64825 39.4298 6.60682C39.4506 6.53804 39.4675 6.4819 39.4852 6.41465C39.5704 6.08927 39.7155 5.33245 39.5268 4.58808C39.355 3.91076 38.8951 3.17142 37.5901 2.78065C36.7292 2.52283 36.0699 2.55723 35.5648 2.71126C35.0541 2.86702 34.6457 3.16225 34.3201 3.50754ZM19.1215 24.127L19.1254 29.4491C17.2672 30.9693 16.1863 33.2452 16.1863 35.6512V38.1532C16.1863 41.9568 17.8577 45.5445 20.8337 47.9132C20.9352 47.994 21.0346 48.0732 21.1315 48.1505H19.5211C19.0816 48.1505 18.7254 48.5067 18.7254 48.9461V61.6759C18.7254 62.1153 19.0816 62.4715 19.5211 62.4715H50.5499C50.9893 62.4715 51.3455 62.1153 51.3455 61.6759V48.9461C51.3455 48.5067 50.9893 48.1505 50.5499 48.1505H48.5685C50.2619 46.5331 51.2538 44.2737 51.2538 41.8722V31.3315C51.2577 31.2584 51.2577 31.2181 51.2577 31.2181L51.2538 25.2661C51.2538 25.2661 51.2538 20.0947 46.7075 20.0947C44.4999 20.0946 43.2668 21.1023 42.578 22.2281C42.302 21.7418 41.9143 21.2573 41.3705 20.8707C40.6912 20.388 39.9547 20.0728 38.8574 20.0728C38.0198 20.0728 37.5078 20.2183 37.0189 20.4724L38.182 16.5675L40.9147 7.19551C40.9223 7.16957 40.9317 7.13824 40.9421 7.10361C40.9679 7.01807 40.9997 6.91241 41.0244 6.81802C41.1352 6.3952 41.3558 5.32737 41.0692 4.19701C40.7656 2.99959 39.9093 1.8141 38.0466 1.25631C36.9194 0.918747 35.9381 0.933863 35.1007 1.18924C34.2689 1.44289 33.6329 1.91696 33.1624 2.41587C32.2387 3.39538 31.8957 4.5318 31.8828 4.57459L31.8825 4.57585L27.7062 18.4978L22.2343 6.86782L22.2338 6.86667C22.2289 6.85626 22.2214 6.84029 22.2124 6.82207C22.13 6.65576 21.5429 5.50916 20.4696 4.62589C19.9249 4.17761 19.2281 3.77472 18.3857 3.62417C17.5318 3.47154 16.5876 3.58928 15.5824 4.09179C14.5807 4.59253 13.9156 5.27665 13.5118 6.04771C13.1131 6.80892 12.9927 7.60893 13.0003 8.31933C13.0153 9.72073 13.5305 10.899 13.6137 11.0818C13.6237 11.1038 13.6326 11.1222 13.6387 11.1349L13.6395 11.1365L18.409 21.0132C18.8779 21.9843 19.1215 23.0487 19.1215 24.127ZM46.1544 48.1505L46.0859 48.0305C48.2974 46.7688 49.6626 44.4183 49.6626 41.8722V34.8583C48.9231 35.5128 47.8408 35.9918 46.2567 35.9918C44.3868 35.9918 43.286 35.1842 42.6379 34.2334C41.5947 35.7239 39.6473 35.8937 38.8636 35.8983C38.7905 35.8987 38.7176 35.8978 38.6447 35.8969C38.4912 35.895 38.338 35.8931 38.1841 35.9037C37.5735 35.946 36.2037 36.1061 34.5973 36.7137C32.6127 37.4643 30.1084 39.148 28.4634 41.6789C27.2441 43.5549 27.0489 46.236 27.0666 47.9259C27.0675 48.0029 27.0687 48.0778 27.0703 48.1505H46.1544ZM43.2977 25.6706L43.3014 25.1888L43.3037 25.1536C43.3107 25.0531 43.3253 24.8995 43.3556 24.7113C43.4175 24.327 43.5384 23.84 43.7642 23.373C43.9875 22.911 44.2951 22.5053 44.7194 22.2127C45.1312 21.9289 45.7468 21.6859 46.7074 21.6859C47.52 21.6859 48.0295 21.9091 48.3744 22.1706C48.7397 22.4477 49.0199 22.8455 49.2288 23.3207C49.6358 24.2466 49.661 25.2071 49.6625 25.2664L49.6626 25.664H49.6587L49.6626 31.2841L49.6612 31.3045C49.6547 31.3907 49.641 31.5249 49.6121 31.6903C49.553 32.0284 49.4379 32.4565 49.223 32.8666C49.0123 33.269 48.7171 33.634 48.2936 33.9034C47.8766 34.1688 47.2433 34.4005 46.2567 34.4005C45.415 34.4005 44.888 34.1853 44.5409 33.9423C44.1799 33.6896 43.9126 33.3351 43.7153 32.9208C43.516 32.5021 43.4083 32.0631 43.353 31.7145C43.3259 31.5442 43.3129 31.4054 43.3068 31.3152C43.3038 31.2704 43.3025 31.2383 43.3019 31.2212L43.3016 31.2092L43.2977 25.6706ZM41.6622 31.0994L41.6508 32.573C41.485 33.3084 41.0918 33.6565 40.7155 33.8712C40.0909 34.2275 39.3034 34.3045 38.8543 34.3071C38.8322 34.3072 38.7964 34.3068 38.7509 34.3062C38.5876 34.3042 38.2997 34.3007 38.0743 34.3163C37.3593 34.3658 35.8271 34.5474 34.0344 35.2254C31.7807 36.0778 28.9845 37.9571 27.1292 40.8118C25.9451 42.6336 25.5985 44.9342 25.505 46.6098C25.4785 47.0857 25.4715 47.5307 25.4753 47.9259H23.384C22.9753 47.5856 22.4154 47.1384 21.8246 46.6682C19.241 44.6118 17.7775 41.4889 17.7775 38.1532V35.6512C17.7775 33.6836 18.6795 31.8246 20.225 30.6068C21.3576 29.7144 22.7577 29.2291 24.1997 29.2291L38.5238 29.2292C38.5817 29.2308 39.4559 29.2546 40.2954 29.6154C40.7274 29.8011 41.0773 30.0455 41.3161 30.3534C41.4565 30.5344 41.5861 30.7719 41.6622 31.0994ZM20.3167 60.8803V49.7417H49.7543V60.8803H20.3167Z" fill="white"/>
</svg>
